<svg width="480" height="683" viewBox="0 0 480 683" fill="none" xmlns="http://www.w3.org/2000/svg">
<path d="M130.444 0L473.143 197.931L472.429 199.587L371.356 255.388L360.958 250.076L130.387 119.569L129.759 0H130.444Z" fill="#D1D1D1"/>
<path d="M480 382.81C480 382.81 479.257 383.867 479.257 385.124C479.229 413.995 479.486 442.866 479.2 471.738L366.386 534.707L363.529 534.478C333.362 515.402 300.88 499.695 270.77 480.619C269.77 479.991 267.542 478.991 267.542 477.678L376.185 415.708L376.47 285.202L377.613 282.917L474.058 229.315L479.314 227.373C479.372 269.952 479.257 312.559 479.257 355.167C479.257 356.423 480 357.366 480 357.48C480 365.904 480 374.386 480 382.81Z" fill="#D1D1D1"/>
<path d="M353.873 682.09L1.0039 478.591C0.74679 447.692 0.975335 416.793 0.9182 385.865C0.9182 371.615 0.946767 357.023 0.9182 342.773C0.832496 296.938 0.203992 251.161 0.546805 205.441L116.503 140.53L217.833 199.272L217.033 201.243L107.476 262.983L107.105 418.678L353.873 558.494V682.119V682.09Z" fill="#D1D1D1"/>
</svg>
