<svg width="167" height="43" viewBox="0 0 167 43" fill="none" xmlns="http://www.w3.org/2000/svg">
<path d="M53.6406 17.06C53.6406 14.0762 50.7474 10.911 45.7312 10.911C40.0961 10.911 33.9152 15.0364 32.9586 23.28C31.993 31.6143 37.1818 35.297 42.3954 35.297C47.6072 35.297 50.351 33.2663 53.1373 30.544C50.7315 27.5139 47.6286 28.924 47.0418 29.2192C46.3927 29.5445 45.5409 29.9945 43.8108 29.9945C41.7908 29.9945 39.7423 29.0805 39.7423 25.3303C52.6555 24.0926 53.6406 20.0455 53.6406 17.06ZM47.2409 17.5596C47.1573 18.479 46.7803 20.0704 40.2456 20.9453C41.6237 16.0517 44.2518 15.689 45.4663 15.689C46.6043 15.689 47.3298 16.5709 47.2409 17.5596ZM25.3693 18.3544C25.3693 18.3544 22.5918 27.064 22.3766 27.7949C22.3019 27.064 20.2695 11.4196 20.2695 11.4196C15.5395 11.4196 13.0091 14.7804 11.6755 18.351C11.6755 18.351 8.29694 27.0854 8.02312 27.8162C8.00716 27.1316 7.50389 18.4417 7.50389 18.4417C7.21761 14.0744 3.23096 11.4302 0 11.4302L3.88533 35.1317C8.8482 35.1156 11.5048 31.7602 12.9061 28.1967C12.9061 28.1967 15.8774 20.4901 16.0001 20.1398C16.0303 20.4741 18.1375 35.1317 18.1375 35.1317C23.1039 35.1317 25.7836 31.9896 27.2257 28.5542L34.1944 11.4302C29.2867 11.4302 26.7029 14.7822 25.3693 18.3544ZM71.8811 10.879C68.8281 10.879 66.4755 12.5381 64.4946 14.9902L64.4981 14.9724L66.2586 0.730957C62.1936 0.730957 58.872 4.26958 58.2407 9.51871L55.1485 34.9467C57.4939 34.9467 59.978 34.2657 61.3187 32.5426C62.5191 34.0842 64.3026 35.313 66.9431 35.313C73.798 35.313 78.5102 27.345 78.5102 19.8641C78.5102 13.0378 75.1886 10.879 71.8811 10.879ZM71.2517 23.0952C70.5404 27.2774 68.2164 30.0975 65.9651 30.0975C63.6962 30.0975 62.7378 29.0947 62.7378 29.0947C63.1609 25.4388 63.4419 23.1965 64.2688 21.2654C65.0939 19.3343 67.0445 16.2527 69.0858 16.2527C71.0703 16.2527 71.963 18.9147 71.2517 23.0952ZM95.6946 11.4321H90.8953L90.9183 11.1813C91.2455 8.04814 91.9959 6.40334 94.4249 6.15083C96.084 5.98019 96.8344 5.11773 97.0086 4.18596C97.1456 3.4551 97.6096 0.871422 97.6096 0.871422C87.9826 0.816329 84.965 4.97191 84.195 11.288L84.1772 11.4302L84.083 11.4338C82.52 11.4338 80.8041 13.2032 80.5035 15.4507L80.3987 16.2775H83.5994L80.9125 38.5209L80.0982 42.5181L80.4288 42.5289C84.9223 42.3581 87.8137 38.8142 88.4521 33.654L90.5503 16.2775H92.0546C93.527 16.2775 95.2571 14.8017 95.5772 12.3353L95.6946 11.4321ZM120.6 11.0196C115.07 11.0196 109.858 15.0898 108.255 21.493C106.655 27.8945 109.088 35.4535 117.216 35.4535C125.346 35.4535 130.017 27.5743 130.017 21.0325C130.017 14.4869 125.593 11.0196 120.6 11.0196ZM122.842 22.9049C122.555 25.8086 121.275 30.1954 117.776 30.1954C114.262 30.1954 114.762 25.0476 115.101 22.6044C115.467 19.985 116.938 16.2775 120.07 16.2775C122.899 16.2775 123.165 19.6258 122.842 22.9049ZM157.326 18.3544C157.326 18.3544 154.549 27.064 154.336 27.7949C154.259 27.064 152.227 11.4196 152.227 11.4196C147.497 11.4196 144.968 14.7804 143.633 18.351C143.633 18.351 140.256 27.0854 139.982 27.8162C139.965 27.1316 139.463 18.4417 139.463 18.4417C139.176 14.0744 135.187 11.4302 131.958 11.4302L135.842 35.1317C140.805 35.1156 143.463 31.7602 144.865 28.1967C144.865 28.1967 147.836 20.4901 147.958 20.1398C147.989 20.4741 150.094 35.1317 150.094 35.1317C155.061 35.1317 157.741 31.9896 159.182 28.5542L166.153 11.4302C161.244 11.4302 158.66 14.7822 157.326 18.3544ZM100.211 0.871422L96.1818 33.3694L96.1711 33.3641L95.3531 37.3828L95.6821 37.3934C100.021 37.3401 103.099 33.5331 103.679 28.7319L106.006 10.0788C106.712 4.39758 103.325 0.871422 100.211 0.871422Z" fill="black"/>
</svg>
