<svg width="635" height="901" viewBox="0 0 635 901" fill="none" xmlns="http://www.w3.org/2000/svg">
<path d="M172.608 0L625.273 261.443L624.33 263.631L490.825 337.338L477.089 330.322L172.532 157.937L171.702 0H172.608Z" fill="#3A3B3D"/>
<path d="M634.33 505.648C634.33 505.648 633.349 507.044 633.349 508.703C633.311 546.839 633.651 584.975 633.273 623.111L484.259 706.285L480.486 705.984C440.638 680.786 397.733 660.04 357.961 634.842C356.64 634.012 353.697 632.692 353.697 630.957L497.202 549.102L497.579 376.718L499.089 373.7L626.481 302.898L633.424 300.333C633.5 356.575 633.349 412.855 633.349 469.134C633.349 470.794 634.33 472.039 634.33 472.19C634.33 483.317 634.33 494.52 634.33 505.648Z" fill="#3A3B3D"/>
<path d="M467.731 900.962L1.63138 632.163C1.29177 591.349 1.59365 550.535 1.51818 509.684C1.51818 490.861 1.55592 471.586 1.51818 452.763C1.40498 392.221 0.574798 331.754 1.02761 271.363L154.193 185.624L288.038 263.215L286.981 265.818L142.269 347.371L141.778 553.025L467.731 737.706V901V900.962Z" fill="#3A3B3D"/>
<path d="M634.791 505.339C634.791 505.339 633.809 506.735 633.809 508.395C633.771 546.535 634.111 584.675 633.733 622.816L484.524 706L480.746 705.698C440.846 680.498 397.885 659.749 358.061 634.548C356.738 633.718 353.791 632.398 353.791 630.663L497.484 548.799L497.862 376.394L499.373 373.376L626.932 302.565L633.884 300C633.96 356.248 633.809 412.535 633.809 468.821C633.809 470.481 634.791 471.726 634.791 471.877C634.791 483.006 634.791 494.21 634.791 505.339Z" fill="#3A3B3D"/>
</svg>
