<svg width="377" height="535" viewBox="0 0 377 535" fill="none" xmlns="http://www.w3.org/2000/svg">
<path d="M102.621 0L371.407 155.241L370.847 156.54L291.574 200.306L283.418 196.14L102.576 93.7808L102.083 0H102.621Z" fill="#C9C9C9"/>
<path d="M376.785 300.246C376.785 300.246 376.203 301.075 376.203 302.061C376.18 324.705 376.382 347.349 376.158 369.994L287.675 419.382L285.435 419.203C261.774 404.241 236.298 391.922 212.681 376.96C211.897 376.467 210.149 375.683 210.149 374.653L295.361 326.049L295.585 223.69L296.481 221.898L372.125 179.857L376.247 178.333C376.292 211.729 376.203 245.147 376.203 278.565C376.203 279.55 376.785 280.29 376.785 280.379C376.785 286.987 376.785 293.639 376.785 300.246Z" fill="#C9C9C9"/>
<path d="M277.861 534.978L1.09827 375.369C0.896611 351.135 1.07586 326.9 1.03105 302.643C1.03105 291.466 1.05346 280.021 1.03105 268.844C0.963833 232.895 0.470883 196.991 0.739759 161.132L91.6869 110.221L171.162 156.294L170.535 157.839L84.6066 206.264L84.3153 328.378L277.861 438.039V535V534.978Z" fill="#C9C9C9"/>
</svg>
